<?xml version="1.0" encoding="utf-8"?>
<!-- Generator: Adobe Illustrator 26.4.0, SVG Export Plug-In . SVG Version: 6.00 Build 0)  -->
<svg version="1.1" id="Layer_1" xmlns="http://www.w3.org/2000/svg" xmlns:xlink="http://www.w3.org/1999/xlink" x="0px" y="0px"
	 viewBox="0 0 1105.3 792" style="enable-background:new 0 0 1105.3 792;" xml:space="preserve">
<style type="text/css">
	.st0{fill:#E04097;}
	.st1{fill:#63CBE4;}
	.st2{fill:#ED2024;}
	.st3{fill:#ED1C24;}
	.st4{fill:#EC008C;}
	.st5{fill:#BE1E2D;}
	.st6{fill:#2E3192;}
</style>
<polygon class="st0" points="261.2,284.3 259.6,209.8 169.8,406.4 202.5,405.9 "/>
<polygon class="st0" points="260.8,283.4 259.4,209.9 324.2,342.7 287.3,342.7 "/>
<polygon class="st1" points="338,372.8 302.9,373.9 287.3,342.7 324.2,342.7 "/>
<polygon class="st2" points="353,406.4 318.9,406.4 302.9,373.9 338,372.8 "/>
<path class="st1" d="M392,231.6c3.4,4.4,8.1,11.5,11.2,21.1c2.8,8.5,3.5,16,3.6,21.3c0.5,4,0.8,10.1-0.6,17.3
	c-1.7,8.1-5,14.2-7.4,17.8c-2.4,4-6.2,9.2-11.8,14.4c-6.4,5.9-12.7,9.4-17.3,11.5c12.6,24,25.2,48.1,37.8,72.1c-12,0-24,0.1-36,0.1
	c-17.4-33.1-34.9-66.2-52.3-99.3c10.8-0.3,19.3-0.2,25-0.1c6.1,0.1,10.5,0.4,15.7-2.1c5-2.4,7.9-6,9.5-8c5.4-6.9,9.6-18,6.8-30
	c-0.5-2.3-3.4-13.5-13.6-20.6c-7.9-5.4-15.7-5.3-29.8-5.3c-14.4,0.1-30.8-0.1-50.6-0.1c-3.7-10.2-11.6-21.7-15.3-31.9h31.4h22.5
	c11.5,0.2,22.9,0.4,34.4,0.6c1.6,0.2,3,0.6,3.9,0.9c1.5,0.5,2.7,1,3.9,1.6c1.5,0.7,2.6,1.3,2.9,1.4c6.2,3.3,8.9,4.5,11.7,6.2
	C380.6,222.2,385.6,225.5,392,231.6z"/>
<path class="st1" d="M425.3,290.1"/>
<path class="st1" d="M365.4,219.3"/>
<g>
	<path class="st3" d="M536.1,345.9l-6.6-17.4h-21.3l-6.6,17.4h-9.1l22.5-59.2h7.8l22.5,59.2H536.1z M519,297.9h-0.2l-7.6,22.6h15.3
		L519,297.9z"/>
	<path class="st4" d="M610.3,345.9v-24.8c0-8.4-3.5-13.1-10.5-13.1c-7.4,0-10.6,4.1-10.6,13v25h-8.3v-25.8c0-8.7-4.1-12.2-10.1-12.2
		c-7.4,0-11,4.3-11,13v24.9h-8.3v-44.3h7.7v4.8h0.2c3.6-4.2,7-6,12.7-6c5.8,0,11.5,2.8,13.8,7.4c3.2-5,7.6-7.4,14.6-7.4
		c11.5,0,18.1,7.2,18.1,18.6v26.9H610.3z"/>
	<path class="st4" d="M665.7,345.9V339h-0.2c-3.1,5.3-8.7,8-15,8c-13,0-23.5-9.8-23.5-22.6c0-14.2,10.2-24.1,23.2-24.1
		c6.5,0,11.9,2.4,15.4,7.4h0.2v-6.2h8.3v44.3H665.7z M665.8,323.8c0-8.6-6.2-15.8-15.4-15.8c-8.3,0-15.1,7.1-15.1,15.8
		c0,8.3,6.8,15.6,15.1,15.6C659,339.4,665.8,332.2,665.8,323.8z"/>
	<path class="st4" d="M715.7,345.9v-24.2c0-9.4-3.7-13.8-11-13.8c-7.3,0-11.7,5.4-11.7,13.7v24.2h-8.3v-44.3h7.8v4.7h0.2
		c3.3-4.2,7.8-5.9,13-5.9c10.6,0,18.5,6.7,18.5,19v26.6H715.7z"/>
</g>
<g>
	<path class="st5" d="M781.5,345.9L762,318.5h-0.2v27.4h-8.6v-59.2h19c14.2,0,20.6,7.5,20.6,19.7c0,11.3-8.6,17.2-17,17.4l16.6,22.1
		H781.5z M768.1,317.3c10.1,0,15.9-3.9,15.9-11.6c0-6.8-5.4-11-13.1-11h-9.1v22.6H768.1z"/>
	<path class="st6" d="M837.2,345.9V339h-0.2c-3.1,5.3-8.7,8-15,8c-13,0-23.5-9.8-23.5-22.6c0-14.2,10.2-24.1,23.2-24.1
		c6.5,0,11.9,2.4,15.4,7.4h0.2v-6.2h8.3v44.3H837.2z M837.4,323.8c0-8.6-6.2-15.8-15.4-15.8c-8.3,0-15.1,7.1-15.1,15.8
		c0,8.3,6.8,15.6,15.1,15.6C830.6,339.4,837.4,332.2,837.4,323.8z"/>
	<path class="st6" d="M856.7,345.9v-59.2h8.3v21h0.2c3.6-4.9,9.2-7.4,15.2-7.4c12.6,0,23,10.6,23,23.4c0,12.4-9.8,23.3-22.2,23.3
		c-6.4,0-12.3-2.6-16-7.5h-0.2v6.4H856.7z M895,323.7c0-8.4-6.6-15.8-15.2-15.8c-8.2,0-15,7.2-15,15.6c0,8.8,6.6,15.8,15.1,15.8
		C888,339.4,895,332.4,895,323.7z"/>
	<path class="st6" d="M948.1,345.9V339H948c-3.1,5.3-8.7,8-15,8c-13,0-23.5-9.8-23.5-22.6c0-14.2,10.2-24.1,23.2-24.1
		c6.5,0,11.9,2.4,15.4,7.4h0.2v-6.2h8.3v44.3H948.1z M948.3,323.8c0-8.6-6.2-15.8-15.4-15.8c-8.3,0-15.1,7.1-15.1,15.8
		c0,8.3,6.8,15.6,15.1,15.6C941.5,339.4,948.3,332.2,948.3,323.8z"/>
	<path class="st6" d="M967.2,345.9v-44.3h7.8v4h0.2c2-3,5.4-4.9,11.3-5.2v8.6c-7.2,0.2-10.9,4.6-10.9,12.1v24.9H967.2z"/>
	<path class="st6" d="M994.4,296.5v-9.8h8.3v9.8H994.4z M994.4,345.9v-44.3h8.3v44.3H994.4z"/>
</g>
<g>
</g>
<g>
</g>
<g>
</g>
<g>
</g>
<g>
</g>
<g>
</g>
</svg>
