<?xml version="1.0" encoding="UTF-8"?><svg id="Layer_1" xmlns="http://www.w3.org/2000/svg" xmlns:xlink="http://www.w3.org/1999/xlink" viewBox="0 0 279 371.02"><defs><style>.cls-1{fill:url(#linear-gradient-2);}.cls-2{fill:#ec008c;font-family:CopperplateGothic-Bold, 'Copperplate Gothic Bold';font-size:44px;}.cls-3{fill:url(#linear-gradient-3);}.cls-4{fill:url(#linear-gradient);}</style><linearGradient id="linear-gradient" x1="32.61" y1="233.05" x2="246.46" y2="109.58" gradientUnits="userSpaceOnUse"><stop offset="0" stop-color="#ec008c"/><stop offset=".05" stop-color="#eb018c" stop-opacity=".78"/><stop offset=".1" stop-color="#ea028c" stop-opacity=".58"/><stop offset=".15" stop-color="#ea038c" stop-opacity=".41"/><stop offset=".19" stop-color="#ea048c" stop-opacity=".3"/><stop offset=".23" stop-color="#ea048c" stop-opacity=".23"/><stop offset=".26" stop-color="#ea058c" stop-opacity=".2"/><stop offset=".36" stop-color="#e3098e" stop-opacity=".21"/><stop offset=".41" stop-color="#ce1897" stop-opacity=".23"/><stop offset=".44" stop-color="#a933a7" stop-opacity=".27"/><stop offset=".47" stop-color="#7459bd" stop-opacity=".33"/><stop offset=".5" stop-color="#308ada" stop-opacity=".4"/><stop offset=".51" stop-color="#00aeef" stop-opacity=".45"/><stop offset=".73" stop-color="#00aeef" stop-opacity=".45"/><stop offset=".81" stop-color="#00aeef" stop-opacity=".42"/><stop offset=".86" stop-color="#00aeef" stop-opacity=".37"/><stop offset=".91" stop-color="#00aeef" stop-opacity=".3"/><stop offset=".94" stop-color="#00aeef" stop-opacity=".2"/><stop offset=".98" stop-color="#00aeef" stop-opacity=".09"/><stop offset="1" stop-color="#00aeef" stop-opacity="0"/></linearGradient><linearGradient id="linear-gradient-2" x1="30.83" y1="78.12" x2="244.61" y2="-45.3" xlink:href="#linear-gradient"/><linearGradient id="linear-gradient-3" x1="156.38" y1="185.51" x2="212.51" y2="185.51" gradientTransform="translate(271.38 -57.24) rotate(64.69)" gradientUnits="userSpaceOnUse"><stop offset="0" stop-color="#ec008c" stop-opacity=".2"/><stop offset=".04" stop-color="#eb008c" stop-opacity=".23"/><stop offset=".21" stop-color="#ea038c" stop-opacity=".35"/><stop offset=".36" stop-color="#ea048c" stop-opacity=".42"/><stop offset=".48" stop-color="#ea058c" stop-opacity=".45"/><stop offset=".52" stop-color="#e5088d" stop-opacity=".45"/><stop offset=".54" stop-color="#d41494" stop-opacity=".45"/><stop offset=".55" stop-color="#b828a0" stop-opacity=".45"/><stop offset=".57" stop-color="#9045b1" stop-opacity=".45"/><stop offset=".58" stop-color="#5b6bc8" stop-opacity=".45"/><stop offset=".59" stop-color="#1c99e2" stop-opacity=".45"/><stop offset=".59" stop-color="#00aeef" stop-opacity=".45"/></linearGradient></defs><g id="logo"><path class="cls-4" d="M0,151.84H259.73c10.63,0,19.27,8.63,19.27,19.27v19.73H19.5C8.74,190.84,0,182.1,0,171.34v-19.5H0Z"/><path class="cls-1" d="M0,0H259.5C270.26,0,279,8.74,279,19.5h0c0,10.76-8.74,19.5-19.5,19.5H19.5C8.74,39,0,30.26,0,19.5V0H0Z"/><path class="cls-3" d="M-22.4,166.14H364.65c10.76,0,19.5,8.74,19.5,19.5h0c0,10.76-8.74,19.5-19.5,19.5H-2.12c-11.19,0-20.28-9.09-20.28-20.28v-18.72h0Z" transform="translate(-64.27 269.8) rotate(-64.69)"/><text class="cls-2" transform="translate(4 148.04)"><tspan x="0" y="0">SEVEN</tspan></text></g></svg>